# 3ds Max Wavefront OBJ Exporter v0.97b - (c)2007 guruware
# File Created: 05.03.2017 21:07:59

mtllib dragons_teeth.mtl

#
# object Layer0_001
#

v  0.7807 -0.7138 -0.9079
v  0.6207 -0.7138 -0.7479
v  0.6207 -0.7138 -0.9079
v  0.7807 -0.7138 -0.7479
v  0.7299 -0.6185 -0.7923
v  0.7299 -0.6185 -0.8573
v  0.6650 -0.6185 -0.7923
v  0.6650 -0.6185 -0.8573
# 8 vertices

vn 0.0000 -1.0000 -0.0000
vn 0.8823 0.4707 -0.0000
vn 0.0000 0.4224 0.9064
vn -0.9070 0.4211 0.0000
vn 0.0000 0.4696 -0.8829
vn 0.0000 1.0000 -0.0000
# 6 vertex normals

vt 0.0000 0.0000 0.0000
# 1 texture coords

g Layer0_001
usemtl skp_front_default
s off
f 1/1/1 2/1/1 3/1/1 
f 2/1/1 1/1/1 4/1/1 
f 1/1/2 5/1/2 4/1/2 
f 5/1/2 1/1/2 6/1/2 
usemtl Material3
f 5/1/3 2/1/3 4/1/3 
f 2/1/3 5/1/3 7/1/3 
f 7/1/4 3/1/4 2/1/4 
f 3/1/4 7/1/4 8/1/4 
f 8/1/5 1/1/5 3/1/5 
f 1/1/5 8/1/5 6/1/5 
f 5/1/6 8/1/6 7/1/6 
f 8/1/6 5/1/6 6/1/6 
# 12 faces

